<svg width="38" height="38" viewBox="0 0 38 38" fill="none" xmlns="http://www.w3.org/2000/svg">
  <path d="M18.5248 37.184C20.7291 37.184 22.54 35.4027 22.54 33.1613C22.54 30.9199 20.7291 29.1387 18.5248 29.1387C16.3205 29.1387 14.5096 30.9199 14.5096 33.1613C14.5096 35.4027 16.3205 37.184 18.5248 37.184ZM18.5248 30.6824C19.9424 30.6824 21.0408 31.8402 21.0408 33.1613C21.0408 34.5566 19.9424 35.6402 18.5248 35.6402C17.1072 35.6402 16.0088 34.4824 16.0088 33.1613C16.0088 31.766 17.1889 30.6824 18.5248 30.6824Z" fill="white"/>
  <path d="M29.9398 37.184C32.1441 37.184 33.9551 35.4027 33.9551 33.1613C33.9551 30.9199 32.1441 29.1387 29.9398 29.1387C27.7355 29.1387 25.9246 30.9199 25.9246 33.1613C25.9246 35.4027 27.7355 37.184 29.9398 37.184ZM29.9398 30.6824C31.3574 30.6824 32.4559 31.8402 32.4559 33.1613C32.4559 34.5566 31.3574 35.6402 29.9398 35.6402C28.5223 35.6402 27.4238 34.4824 27.4238 33.1613C27.498 31.766 28.6039 30.6824 29.9398 30.6824Z" fill="white"/>
  <path d="M14.9031 27.1274H33.3242L37.1836 9.40393H19.3934V10.8735H35.291L32.0699 25.6578H16.009L7.91867 4.85938H1.62492V6.41055H6.82023L14.9031 27.1274Z" fill="white"/>
</svg>
