<svg
  width="304"
  height="295"
  viewBox="0 0 304 295"
  fill="none"
  xmlns="http://www.w3.org/2000/svg"
>
  <rect width="304" height="295" fill="#0E183F" />
  <path
    d="M122.171 79.3126C116.429 60.8903 100.846 63.6015 101.016 69.8798C101.371 83.0016 87.2803 136.996 80.5206 145.004C77.6997 148.346 89.1354 154.469 100.022 147.67C109.132 141.982 115.006 133.724 120.003 121.195C123.012 111.095 129.098 101.536 122.171 79.3126Z"
    fill="#A67D6A"
  />
  <path
    d="M70.7337 66.3261C84.5323 52.8373 96.9614 62.6209 93.8316 68.0661C87.2902 79.4467 74.0616 133.659 76.2101 143.916C77.1067 148.196 64.135 148.157 57.7801 137.006C52.4624 127.674 51.2121 117.617 52.7608 104.219C54.9074 93.9005 54.0878 82.5985 70.7337 66.3261Z"
    fill="#A67D6A"
  />
  <path
    d="M173.71 155.343C180.14 142.268 170.194 135.653 167.024 139.18C160.399 146.553 124.616 168.806 116.751 169.678C113.469 170.043 116.551 179.34 126.048 181.275C133.994 182.894 141.504 181.424 150.753 177.158C157.651 173.189 165.953 171.117 173.71 155.343Z"
    fill="#A67D6A"
  />
  <path
    d="M152.284 121.495C166.853 121.278 168.576 133.097 164.032 134.453C154.533 137.287 119.11 160.107 114.956 166.842C113.222 169.653 106.137 162.889 108.452 153.478C110.389 145.602 114.931 139.444 122.744 132.909C129.283 128.373 134.708 121.756 152.284 121.495Z"
    fill="#A67D6A"
  />
  <mask id="path-4-inside-1_322_15" fill="white">
    <path
      fill-rule="evenodd"
      clip-rule="evenodd"
      d="M244.074 201.515C244.074 201.65 244.064 201.785 244.044 201.918C244.145 203.619 244.118 205.325 243.981 207.023C244.04 206.514 244.075 206.08 244.075 205.763C248.238 204.743 256.84 204.913 257.937 213.748C259.308 224.793 237.829 233.288 233.259 234.138C233.405 233.929 233.576 233.682 233.765 233.408C230.316 238.289 226.669 241.868 223.966 243.313C220.463 248.58 210.855 248.58 209.038 248.58C208.959 248.58 208.863 248.58 208.752 248.581C206.394 248.598 197.011 248.666 193.956 243.313C183.929 237.47 173.565 219.985 174.07 202.134C174.024 201.929 174 201.723 174 201.515C174 196.166 189.687 192 209.037 192C228.388 192 244.074 196.166 244.074 201.515ZM235.532 230.759C236.371 229.463 237.195 228.122 237.677 227.171C244.887 225.982 255.859 219.538 254.281 214.258C251.717 205.678 245.319 211.036 242.778 214.166C241.248 220.234 238.552 225.969 235.532 230.759ZM208.732 208.311C225.896 208.311 239.809 205.192 239.809 201.344C239.809 197.497 225.896 194.378 208.732 194.378C191.569 194.378 177.656 197.497 177.656 201.344C177.656 205.192 191.569 208.311 208.732 208.311Z"
    />
  </mask>
  <path
    fill-rule="evenodd"
    clip-rule="evenodd"
    d="M244.074 201.515C244.074 201.65 244.064 201.785 244.044 201.918C244.145 203.619 244.118 205.325 243.981 207.023C244.04 206.514 244.075 206.08 244.075 205.763C248.238 204.743 256.84 204.913 257.937 213.748C259.308 224.793 237.829 233.288 233.259 234.138C233.405 233.929 233.576 233.682 233.765 233.408C230.316 238.289 226.669 241.868 223.966 243.313C220.463 248.58 210.855 248.58 209.038 248.58C208.959 248.58 208.863 248.58 208.752 248.581C206.394 248.598 197.011 248.666 193.956 243.313C183.929 237.47 173.565 219.985 174.07 202.134C174.024 201.929 174 201.723 174 201.515C174 196.166 189.687 192 209.037 192C228.388 192 244.074 196.166 244.074 201.515ZM235.532 230.759C236.371 229.463 237.195 228.122 237.677 227.171C244.887 225.982 255.859 219.538 254.281 214.258C251.717 205.678 245.319 211.036 242.778 214.166C241.248 220.234 238.552 225.969 235.532 230.759ZM208.732 208.311C225.896 208.311 239.809 205.192 239.809 201.344C239.809 197.497 225.896 194.378 208.732 194.378C191.569 194.378 177.656 197.497 177.656 201.344C177.656 205.192 191.569 208.311 208.732 208.311Z"
    fill="#A67D6A"
  />
  <path
    d="M244.044 201.918L243.055 201.772L243.04 201.874L243.046 201.978L244.044 201.918ZM243.981 207.023L242.984 206.943L244.974 207.139L243.981 207.023ZM244.075 205.763L243.837 204.791L243.075 204.978V205.763H244.075ZM257.937 213.748L258.93 213.625V213.625L257.937 213.748ZM233.259 234.138L232.44 233.563L231.034 235.568L233.442 235.121L233.259 234.138ZM233.765 233.408L234.589 233.974L232.948 232.831L233.765 233.408ZM223.966 243.313L223.495 242.431L223.273 242.549L223.134 242.759L223.966 243.313ZM208.752 248.581L208.759 249.581H208.759L208.752 248.581ZM193.956 243.313L194.825 242.817L194.692 242.584L194.46 242.449L193.956 243.313ZM174.07 202.134L175.07 202.162L175.073 202.036L175.045 201.912L174.07 202.134ZM237.677 227.171L237.514 226.185L237.014 226.267L236.784 226.72L237.677 227.171ZM235.532 230.759L234.686 230.226L236.372 231.303L235.532 230.759ZM254.281 214.258L253.323 214.545V214.545L254.281 214.258ZM242.778 214.166L242.002 213.536L241.862 213.707L241.808 213.921L242.778 214.166ZM245.034 202.065C245.061 201.883 245.074 201.7 245.074 201.515H243.074C243.074 201.6 243.068 201.686 243.055 201.772L245.034 202.065ZM244.978 207.104C245.119 205.362 245.147 203.61 245.043 201.859L243.046 201.978C243.144 203.628 243.118 205.287 242.984 206.943L244.978 207.104ZM243.075 205.763C243.075 206.022 243.045 206.41 242.988 206.908L244.974 207.139C245.035 206.618 245.075 206.139 245.075 205.763H243.075ZM258.93 213.625C258.635 211.252 257.827 209.4 256.665 207.993C255.506 206.589 254.038 205.679 252.497 205.12C249.447 204.013 246.043 204.251 243.837 204.791L244.312 206.734C246.27 206.255 249.249 206.068 251.815 207C253.082 207.46 254.23 208.186 255.123 209.267C256.013 210.345 256.691 211.827 256.945 213.872L258.93 213.625ZM233.442 235.121C235.876 234.668 242.505 232.275 248.356 228.614C251.29 226.778 254.093 224.584 256.083 222.099C258.075 219.611 259.317 216.746 258.93 213.625L256.945 213.872C257.243 216.273 256.314 218.611 254.522 220.849C252.727 223.09 250.131 225.144 247.295 226.918C241.608 230.478 235.212 232.757 233.076 233.154L233.442 235.121ZM232.941 232.841C232.754 233.114 232.585 233.358 232.44 233.563L234.077 234.712C234.226 234.5 234.399 234.251 234.589 233.974L232.941 232.841ZM224.438 244.195C227.344 242.642 231.1 238.913 234.582 233.985L232.948 232.831C229.533 237.666 225.994 241.095 223.495 242.431L224.438 244.195ZM209.038 249.58C209.957 249.58 212.903 249.581 216.08 248.899C219.213 248.226 222.823 246.837 224.799 243.866L223.134 242.759C221.606 245.055 218.661 246.299 215.66 246.944C212.702 247.578 209.936 247.58 209.038 247.58V249.58ZM208.759 249.581C208.872 249.58 208.963 249.58 209.038 249.58V247.58C208.954 247.58 208.855 247.581 208.744 247.581L208.759 249.581ZM193.088 243.808C194.834 246.869 198.309 248.273 201.405 248.939C204.544 249.614 207.576 249.59 208.759 249.581L208.744 247.581C207.57 247.59 204.731 247.608 201.826 246.983C198.877 246.349 196.133 245.11 194.825 242.817L193.088 243.808ZM173.071 202.106C172.813 211.227 175.33 220.228 179.175 227.685C183.012 235.126 188.224 241.13 193.453 244.177L194.46 242.449C189.661 239.653 184.678 233.993 180.953 226.768C177.235 219.56 174.823 210.892 175.07 202.162L173.071 202.106ZM173 201.515C173 201.799 173.032 202.08 173.095 202.356L175.045 201.912C175.015 201.778 175 201.646 175 201.515H173ZM209.037 191C199.301 191 190.45 192.047 184.002 193.786C180.785 194.654 178.108 195.709 176.212 196.931C174.357 198.127 173 199.651 173 201.515H175C175 200.704 175.604 199.702 177.295 198.612C178.945 197.549 181.399 196.56 184.523 195.717C190.755 194.036 199.422 193 209.037 193V191ZM245.074 201.515C245.074 199.651 243.718 198.127 241.863 196.931C239.966 195.709 237.289 194.654 234.073 193.786C227.624 192.047 218.773 191 209.037 191V193C218.652 193 227.319 194.036 233.552 195.717C236.675 196.56 239.129 197.549 240.779 198.612C242.47 199.702 243.074 200.704 243.074 201.515H245.074ZM236.784 226.72C236.329 227.62 235.53 228.922 234.693 230.216L236.372 231.303C237.212 230.004 238.061 228.625 238.569 227.623L236.784 226.72ZM253.323 214.545C253.6 215.471 253.363 216.55 252.537 217.778C251.711 219.004 250.368 220.26 248.7 221.43C245.361 223.774 240.954 225.617 237.514 226.185L237.839 228.158C241.609 227.536 246.294 225.563 249.849 223.067C251.628 221.818 253.183 220.399 254.196 218.895C255.208 217.392 255.751 215.685 255.239 213.972L253.323 214.545ZM243.554 214.796C244.153 214.059 244.981 213.189 245.916 212.43C246.861 211.665 247.86 211.057 248.803 210.78C249.723 210.509 250.52 210.568 251.211 211.02C251.935 211.495 252.716 212.515 253.323 214.545L255.239 213.972C254.564 211.711 253.584 210.184 252.307 209.347C250.998 208.489 249.556 208.474 248.239 208.861C246.943 209.242 245.707 210.025 244.657 210.876C243.598 211.735 242.674 212.708 242.002 213.536L243.554 214.796ZM236.378 231.293C239.443 226.43 242.187 220.598 243.748 214.411L241.808 213.921C240.308 219.869 237.66 225.508 234.686 230.226L236.378 231.293ZM238.809 201.344C238.809 201.502 238.742 201.742 238.439 202.074C238.131 202.412 237.629 202.785 236.898 203.172C235.44 203.946 233.263 204.673 230.488 205.294C224.955 206.535 217.263 207.311 208.732 207.311V209.311C217.365 209.311 225.211 208.527 230.926 207.246C233.775 206.607 236.149 205.833 237.835 204.94C238.677 204.493 239.396 203.992 239.916 203.422C240.441 202.847 240.809 202.148 240.809 201.344H238.809ZM208.732 195.378C217.263 195.378 224.955 196.154 230.488 197.394C233.263 198.016 235.44 198.743 236.898 199.516C237.629 199.903 238.131 200.277 238.439 200.615C238.742 200.947 238.809 201.186 238.809 201.344H240.809C240.809 200.54 240.441 199.841 239.916 199.266C239.396 198.697 238.677 198.196 237.835 197.749C236.149 196.856 233.775 196.081 230.926 195.443C225.211 194.162 217.365 193.378 208.732 193.378V195.378ZM178.656 201.344C178.656 201.186 178.723 200.947 179.026 200.615C179.334 200.277 179.836 199.903 180.566 199.516C182.025 198.743 184.202 198.016 186.977 197.394C192.51 196.154 200.202 195.378 208.732 195.378V193.378C200.1 193.378 192.254 194.162 186.539 195.443C183.69 196.081 181.316 196.856 179.63 197.749C178.788 198.196 178.069 198.697 177.549 199.266C177.024 199.841 176.656 200.54 176.656 201.344H178.656ZM208.732 207.311C200.202 207.311 192.51 206.535 186.977 205.294C184.202 204.673 182.025 203.946 180.566 203.172C179.836 202.785 179.334 202.412 179.026 202.074C178.723 201.742 178.656 201.502 178.656 201.344H176.656C176.656 202.148 177.024 202.847 177.549 203.422C178.069 203.992 178.788 204.493 179.63 204.94C181.316 205.833 183.69 206.607 186.539 207.246C192.254 208.527 200.1 209.311 208.732 209.311V207.311Z"
    fill="#A67D6A"
    mask="url(#path-4-inside-1_322_15)"
  />
</svg>
