<svg width="212" height="179" viewBox="0 0 212 179" fill="none" xmlns="http://www.w3.org/2000/svg">
<path fill-rule="evenodd" clip-rule="evenodd" d="M20.2792 161.807L106.145 20.9876L192.01 161.807H20.2792ZM117.671 7.23645C112.409 -1.39261 99.8801 -1.39263 94.6185 7.23645L2.51943 158.279C-2.96597 167.275 3.50905 178.807 14.0457 178.807H198.244C208.78 178.807 215.255 167.275 209.77 158.279L117.671 7.23645ZM114.645 64.0289C114.645 59.3345 110.839 55.5289 106.145 55.5289C101.45 55.5289 97.6447 59.3345 97.6447 64.0289V113.745C97.6447 118.439 101.45 122.245 106.145 122.245C110.839 122.245 114.645 118.439 114.645 113.745V64.0289ZM106.956 152.873C111.966 152.873 116.028 148.811 116.028 143.801C116.028 138.79 111.966 134.729 106.956 134.729C101.945 134.729 97.8837 138.79 97.8837 143.801C97.8837 148.811 101.945 152.873 106.956 152.873Z" fill="#D4C36C"/>
</svg>
